<svg width="132" height="30" viewBox="0 0 132 30" fill="none" xmlns="http://www.w3.org/2000/svg">
<path d="M33.7425 29.5918C33.6105 29.5918 33.5444 29.5238 33.5444 29.3877L33.6237 1.34663C33.6237 1.23778 33.6765 1.18336 33.7821 1.18336H46.4593C46.5914 1.18336 46.6574 1.23778 46.6574 1.34663V5.95891C46.6574 6.06775 46.6046 6.12218 46.4989 6.12218H38.3776V12.4488H46.4989C46.6046 12.4488 46.6574 12.5168 46.6574 12.6529L46.697 17.2651C46.697 17.374 46.631 17.4284 46.4989 17.4284H38.3776V29.3877C38.3776 29.5238 38.3116 29.5918 38.1795 29.5918H33.7425Z" fill="white"/>
<path d="M49.9719 29.5918C49.8662 29.5918 49.8134 29.5238 49.8134 29.3877L49.8926 1.34663C49.8926 1.23778 49.9454 1.18336 50.0511 1.18336H58.0536C59.4797 1.18336 60.7871 1.5507 61.9756 2.2854C63.1905 2.9929 64.1545 3.95889 64.8676 5.18339C65.5806 6.38068 65.9372 7.74124 65.9372 9.26507C65.9372 10.2719 65.7919 11.1835 65.5014 11.9998C65.2109 12.7889 64.8676 13.4692 64.4714 14.0406C64.0752 14.5848 63.7187 14.993 63.4018 15.2651C64.8279 16.8978 65.541 18.8162 65.541 21.0203L65.5807 29.3877C65.5807 29.5238 65.5146 29.5918 65.3826 29.5918H60.9059C60.8003 29.5918 60.7475 29.551 60.7475 29.4693V21.0203C60.7475 20.0407 60.4041 19.1971 59.7174 18.4896C59.0572 17.7549 58.2384 17.3876 57.2612 17.3876H54.6466L54.607 29.3877C54.607 29.5238 54.5541 29.5918 54.4485 29.5918H49.9719ZM54.6466 12.4896H58.0536C58.8723 12.4896 59.5986 12.1767 60.2325 11.5508C60.8663 10.9249 61.1832 10.163 61.1832 9.26507C61.1832 8.39431 60.8663 7.646 60.2325 7.02015C59.625 6.39429 58.8987 6.08136 58.0536 6.08136H54.6466V12.4896Z" fill="white"/>
<path d="M68.2913 29.5918C68.1856 29.5918 68.1328 29.5238 68.1328 29.3877L68.1724 1.34663C68.1724 1.23778 68.2252 1.18336 68.3309 1.18336H81.0477C81.1533 1.18336 81.2061 1.25139 81.2061 1.38744V5.95891C81.2061 6.06775 81.1533 6.12218 81.0477 6.12218H72.9264V12.4896H81.0477C81.1533 12.4896 81.2061 12.544 81.2061 12.6529L81.2458 17.2651C81.2458 17.374 81.1929 17.4284 81.0873 17.4284H72.9264V24.5713H81.0873C81.1929 24.5713 81.2458 24.6394 81.2458 24.7754V29.4285C81.2458 29.5374 81.1929 29.5918 81.0873 29.5918H68.2913Z" fill="white"/>
<path d="M90.4788 30C89.0526 30 87.7453 29.6326 86.5568 28.8979C85.3947 28.136 84.4572 27.1428 83.7441 25.9183C83.0574 24.6666 82.714 23.2924 82.714 21.7958V19.9182C82.714 19.7822 82.7801 19.7141 82.9121 19.7141H87.3491C87.4548 19.7141 87.5076 19.7822 87.5076 19.9182V21.7958C87.5076 22.6938 87.7981 23.4693 88.3792 24.1223C88.9602 24.7482 89.6601 25.0611 90.4788 25.0611C91.2976 25.0611 91.9974 24.7346 92.5785 24.0815C93.1595 23.4285 93.45 22.6666 93.45 21.7958C93.45 20.789 92.8162 19.9182 91.5485 19.1835C91.1259 18.9386 90.4656 18.5577 89.5677 18.0407C88.6697 17.5236 87.8245 17.0338 87.0322 16.5713C85.5796 15.7005 84.4968 14.6121 83.7837 13.3059C83.097 11.9726 82.7537 10.476 82.7537 8.81608C82.7537 7.29226 83.1102 5.9317 83.8233 4.73441C84.5364 3.50991 85.474 2.54392 86.6361 1.83643C87.8245 1.12894 89.1055 0.775192 90.4788 0.775192C91.8786 0.775192 93.1595 1.14254 94.3216 1.87724C95.5101 2.58473 96.4477 3.55072 97.1343 4.77523C97.8474 5.97252 98.204 7.31947 98.204 8.81608V12.163C98.204 12.2719 98.1512 12.3263 98.0455 12.3263H93.6085C93.5029 12.3263 93.45 12.2719 93.45 12.163L93.4104 8.81608C93.4104 7.86369 93.1199 7.08817 92.5389 6.48953C91.9578 5.89089 91.2711 5.59157 90.4788 5.59157C89.6601 5.59157 88.9602 5.91809 88.3792 6.57116C87.7981 7.19701 87.5076 7.94533 87.5076 8.81608C87.5076 9.71405 87.6925 10.4624 88.0622 11.061C88.432 11.6596 89.1055 12.2311 90.0827 12.7753C90.2147 12.8569 90.4656 13.0066 90.8354 13.2243C91.2315 13.4148 91.6541 13.6461 92.1031 13.9182C92.5521 14.1631 92.9482 14.3808 93.2916 14.5712C93.6613 14.7617 93.8858 14.8842 93.965 14.9386C95.2856 15.7005 96.3288 16.6393 97.0947 17.7549C97.8606 18.8434 98.2436 20.1903 98.2436 21.7958C98.2436 23.3468 97.887 24.7482 97.174 25.9999C96.4873 27.2244 95.5497 28.204 94.3612 28.9387C93.1991 29.6462 91.905 30 90.4788 30Z" fill="white"/>
<path d="M100.365 29.5918C100.259 29.5918 100.206 29.5238 100.206 29.3877L100.286 1.38744C100.286 1.25139 100.339 1.18336 100.444 1.18336H104.881C104.987 1.18336 105.04 1.25139 105.04 1.38744V11.061L111.259 1.34663C111.339 1.23778 111.431 1.18336 111.537 1.18336H116.093C116.198 1.18336 116.225 1.23778 116.172 1.34663L109.318 12.612L117.004 29.4285C117.057 29.5374 116.991 29.5918 116.806 29.5918H111.972C111.84 29.5918 111.761 29.5374 111.735 29.4285L106.387 17.4284L105 19.6733V29.3877C105 29.5238 104.947 29.5918 104.842 29.5918H100.365Z" fill="white"/>
<path d="M124.114 30C122.688 30 121.38 29.6326 120.192 28.8979C119.03 28.136 118.092 27.1428 117.379 25.9183C116.666 24.6666 116.31 23.2924 116.31 21.7958L116.349 8.8569C116.349 7.36028 116.692 5.99973 117.379 4.77523C118.092 3.55072 119.043 2.57113 120.232 1.83643C121.42 1.10173 122.714 0.734375 124.114 0.734375C125.54 0.734375 126.834 1.10173 127.996 1.83643C129.158 2.57113 130.083 3.55072 130.769 4.77523C131.483 5.99973 131.839 7.36028 131.839 8.8569L131.879 21.7958C131.879 23.2924 131.522 24.6666 130.809 25.9183C130.122 27.1428 129.185 28.136 127.996 28.8979C126.834 29.6326 125.54 30 124.114 30ZM124.114 25.0611C124.906 25.0611 125.593 24.7346 126.174 24.0815C126.781 23.4013 127.085 22.6393 127.085 21.7958L127.046 8.8569C127.046 7.95893 126.768 7.19701 126.214 6.57116C125.659 5.9453 124.959 5.63238 124.114 5.63238C123.295 5.63238 122.595 5.9453 122.014 6.57116C121.433 7.1698 121.143 7.93172 121.143 8.8569V21.7958C121.143 22.6938 121.433 23.4693 122.014 24.1223C122.595 24.7482 123.295 25.0611 124.114 25.0611Z" fill="white"/>
<path d="M0 11.8333C0 5.85025 4.85025 1 10.8333 1H17.1667C23.1498 1 28 5.85025 28 11.8333V11.8333C28 13.03 27.03 14 25.8333 14H2.16667C0.97005 14 0 13.03 0 11.8333V11.8333Z" fill="#E07C33"/>
<path d="M0 26.6667C0 26.2985 0.298477 26 0.666667 26H27.3333C27.7015 26 28 26.2985 28 26.6667V26.6667C28 28.5076 26.5076 30 24.6667 30H3.33333C1.49238 30 0 28.5076 0 26.6667V26.6667Z" fill="#E07C33"/>
<rect y="21" width="28" height="3" rx="1.5" fill="#FF0000"/>
<rect y="16" width="28" height="3" rx="1.5" fill="#80FF00"/>
</svg>
