<svg width="500" height="57" viewBox="0 0 500 57" fill="none" xmlns="http://www.w3.org/2000/svg">
<path d="M500 12L-6.58619e-06 12L-9.49062e-06 45.2227C0.0859728 45.2227 0.200616 45.2003 0.260543 45.2227C0.935373 45.5559 1.63887 45.8154 2.54559 45.7282C2.67326 45.7147 2.8348 45.8109 2.96769 45.8668C3.60604 46.1419 3.80928 46.1754 4.86712 46.2269C4.93256 46.2308 4.9962 46.2469 5.05376 46.2739C5.11132 46.3009 5.16141 46.3383 5.20061 46.3834C5.3413 46.6787 5.667 46.739 6.08388 46.7189C6.88638 46.6787 7.48044 46.8822 7.87388 47.3384C8.26731 47.7946 9.23916 47.6895 9.75766 48.0451C10.5888 48.0116 11.4591 48.1927 12.246 47.8863C12.9547 47.609 13.7259 47.7477 14.4737 47.7298C14.7342 48.0988 15.3048 47.58 15.5888 47.8863C15.9875 47.8304 16.3966 47.7969 16.7796 47.7141C17.1626 47.6314 17.4935 47.4368 17.8713 47.4033C18.2491 47.3697 18.4914 47.3652 18.58 47.0924C18.6087 47.0119 18.8093 46.9202 18.9552 46.8934C19.2157 46.8464 19.4763 46.6138 19.7577 46.9336C20.198 47.4346 21.1751 47.2825 21.8239 47.5486C21.8624 47.5571 21.9026 47.5589 21.9419 47.5539C21.9813 47.5489 22.0191 47.5372 22.0531 47.5196C22.5508 47.0298 22.8348 47.4368 23.1683 47.6202C23.2508 47.6501 23.3424 47.6556 23.4289 47.6359C23.7467 47.2646 24.1271 47.533 24.4242 47.6202C24.4853 47.6436 24.5514 47.6557 24.6183 47.6557C24.6852 47.6557 24.7513 47.6436 24.8124 47.6202C25.0412 47.5681 25.2397 47.4455 25.37 47.2758C25.4247 47.2132 25.7869 47.5531 26.0604 47.3026C26.2559 47.1215 26.8603 47.3921 26.8916 46.9604C26.8916 46.7994 27.6133 47.032 27.6993 46.6205C27.7384 46.4416 28.3794 46.6496 28.7415 46.455C28.9812 46.3208 29.4111 46.1397 29.7342 46.4818C29.7915 46.5445 30.0339 46.5556 30.1928 46.5579C30.5029 46.5579 30.6514 46.5825 30.8129 46.8196C31.0578 47.1774 31.6258 47.1595 32.0427 46.8374C32.0724 46.8052 32.1095 46.7785 32.1517 46.7592C32.194 46.7399 32.2405 46.7283 32.2882 46.7251C32.3359 46.722 32.3839 46.7273 32.4291 46.7409C32.4743 46.7545 32.5158 46.7759 32.5508 46.8039C32.6253 46.8611 32.7218 46.8927 32.8218 46.8927C32.9217 46.8927 33.0182 46.8611 33.0928 46.8039C33.3194 46.6652 33.3272 46.7882 33.3533 46.9001C33.3533 46.947 33.4289 47.0343 33.4549 47.032C34.4554 46.9314 34.8437 47.4793 35.4299 47.8058C35.7113 47.9646 35.9302 48.2173 36.3549 47.902C36.5512 47.8619 36.7575 47.8793 36.9411 47.9512C37.1365 48.0272 37.2486 48.0921 37.4909 47.9937C38.2152 47.703 38.8666 47.9937 39.4085 48.2173C39.7707 48.3717 39.9557 48.3359 40.0573 48.1614C40.2032 47.902 40.2892 47.7432 40.7139 48.0026C40.8569 48.0353 41.0086 48.0251 41.1438 47.9736C41.6363 47.7902 42.2303 47.7074 42.5899 47.3899C43.296 47.4815 43.5435 47.0835 43.9291 46.8531C44.3147 46.6227 44.2053 46.8665 44.3173 46.9783C44.6065 47.2624 45.5237 47.3496 45.8806 47.0969C46.0749 46.9442 46.3066 46.8309 46.5587 46.7655C46.8109 46.7 47.0769 46.6841 47.3372 46.7189C47.8218 46.7771 47.5482 46.4013 47.8583 46.3454C47.9755 46.3231 48.0927 46.1218 48.1865 46.3454C48.4288 46.8934 49.075 46.9403 49.7942 46.8934C50.4299 46.8531 50.8364 46.8509 51.1542 47.0611C51.4721 47.2713 51.7639 47.2221 52.0948 47.2266C52.3814 47.2266 52.6159 46.871 52.9468 47.1886C53.0335 47.0966 53.1266 47.0092 53.2256 46.9269C53.382 46.8106 53.5175 46.6585 53.7832 46.8822C53.8515 46.9448 53.934 46.9947 54.0256 47.0289C54.1173 47.063 54.2161 47.0806 54.316 47.0806C54.4159 47.0806 54.5148 47.063 54.6065 47.0289C54.6981 46.9947 54.7806 46.9448 54.8489 46.8822C55.2333 46.6291 55.717 46.5136 56.1985 46.5601C56.3386 46.5779 56.4816 46.5684 56.6169 46.5324C56.7522 46.4964 56.8763 46.4348 56.9802 46.3521C57.0297 46.3074 57.1053 46.2358 57.16 46.2381C57.8166 46.2694 58.2882 46.1553 58.3533 45.6745C58.3657 45.647 58.3857 45.6224 58.4116 45.603C58.4374 45.5835 58.4684 45.5697 58.5018 45.5627C59.544 45.5627 60.0208 45.0393 60.6514 44.6681C61.0109 44.4444 61.3236 44.2208 61.8239 44.5316C62.3614 44.4754 62.8917 44.3766 63.408 44.2364C63.58 44.0821 63.8796 44.1179 64.0672 44.0486C64.643 43.8249 65.0495 43.8629 65.4742 44.1984C65.9432 44.5652 66.7118 44.5562 67.3423 44.724C67.4604 44.7359 67.5799 44.7155 67.6837 44.6658C68.0823 44.4914 68.2856 44.5026 68.5044 44.7262C68.5904 44.8134 68.6868 44.9007 68.765 44.9901C68.9891 45.2518 68.9865 45.2518 69.2861 45.0393C69.4592 44.8951 69.6825 44.8035 69.922 44.7784C70.1615 44.7534 70.4039 44.7963 70.6123 44.9007C70.854 44.9961 71.0793 45.1195 71.2819 45.2674C71.4956 45.4307 71.6232 45.3502 71.7457 45.2339C71.8681 45.1176 71.9176 44.9991 72.0297 44.8962C72.1417 44.7933 72.2512 44.7016 72.4961 44.8537C72.9036 45.0916 73.3263 45.3096 73.7624 45.5067C73.8952 45.5716 74.1011 45.67 74.2105 45.6454C74.4528 45.5873 74.5258 45.4397 74.3981 45.216L74.372 45.2294C74.3173 45.169 74.2626 45.1087 74.3538 45.1444C74.2704 44.9946 74.3069 44.9521 74.3538 44.9208C74.4101 44.9977 74.4589 45.0785 74.4997 45.1623C75.0756 45.2115 75.2553 45.4933 75.542 45.6521C76.024 45.9227 76.0292 45.9473 76.5373 45.6812C76.6301 45.6165 76.746 45.5813 76.8655 45.5813C76.9851 45.5813 77.101 45.6165 77.1938 45.6812C77.3797 45.6198 77.555 45.5371 77.715 45.4352C78.1318 45.2115 78.6034 45.1377 78.9395 45.3569C79.243 45.5391 79.6141 45.6187 79.9817 45.5806C80.3499 45.5341 80.7246 45.6145 81.024 45.8042C81.2459 45.8921 81.4967 45.9104 81.7327 45.8556C82.1367 45.756 82.5271 45.6195 82.8973 45.4486C83.2882 45.2697 83.2751 45.2473 83.9838 45.2473C84.5049 45.2473 84.6873 44.9834 84.9218 44.7665C85.1212 44.5666 85.3887 44.4256 85.6865 44.3634C85.9844 44.3012 86.2975 44.3209 86.5816 44.4198C87.3632 44.7463 88.0094 44.5697 88.6295 44.2767C88.89 44.1559 89.1272 43.9927 89.4112 44.0866C90.0599 44.3102 90.6644 44.0352 91.2871 44.0866C91.4489 44.1101 91.6148 44.1022 91.7726 44.0635C91.9304 44.0248 92.0761 43.9563 92.1991 43.8629C92.3033 43.7802 92.5847 43.8003 92.7592 43.7422C92.9391 43.6931 93.1032 43.6089 93.2387 43.4962C93.2882 43.4425 93.124 43.315 93.0954 43.2166C93.0667 43.1182 93.0432 42.993 93.1136 42.937C93.3988 42.7167 93.6668 42.4807 93.9161 42.2303C94.1271 41.9552 94.8385 42.0469 94.8463 41.6578C94.8463 41.6309 94.9896 41.575 95.0469 41.584C95.7869 41.6958 96.0683 41.2798 96.5503 41.0785C97.1626 40.8213 97.6837 40.5776 97.7176 40.0542C97.7176 39.9648 98.098 39.9022 98.2387 39.797C98.3794 39.6919 98.4679 39.5197 98.6191 39.4012C99.1402 39.0053 99.6613 38.6229 100.182 38.2293C100.474 38.0056 100.688 37.8468 101.128 38.1711C101.436 38.3948 101.837 38.227 102.084 38.0101C102.332 37.7932 102.572 37.7865 102.934 37.9945C103.218 38.1644 103.585 38.2181 103.762 38.5178C103.898 38.7414 104.263 38.9002 104.776 38.936C105.309 39.0103 105.826 39.1543 106.308 39.3632C106.446 39.4124 106.49 39.5868 106.537 39.7121C106.613 39.997 106.706 40.2784 106.816 40.5552C106.917 40.7112 107.076 40.8339 107.267 40.9041C107.323 40.9274 107.384 40.9392 107.447 40.9386C107.509 40.9381 107.57 40.9252 107.626 40.9009C107.681 40.8767 107.73 40.8417 107.767 40.7988C107.804 40.7559 107.829 40.7062 107.84 40.6536C107.84 40.5731 107.817 40.4836 107.84 40.4054C107.86 40.3685 107.889 40.3359 107.926 40.3099C107.962 40.284 108.005 40.2654 108.051 40.2555C108.105 40.2541 108.159 40.2622 108.209 40.2791C108.259 40.296 108.304 40.3214 108.343 40.3539C108.44 40.5271 108.592 40.6733 108.781 40.7758C108.971 40.8783 109.19 40.9328 109.414 40.9332C109.687 40.9533 110.133 41.1971 110.13 41.3402C110.13 41.6511 110.391 41.7316 110.714 41.8546C110.92 41.9329 111.154 42.0782 111.196 42.2191C111.352 42.7201 112.139 42.9482 112.392 43.4045C112.439 43.4546 112.499 43.4954 112.566 43.524C112.634 43.5525 112.707 43.5682 112.783 43.57C113.517 43.4604 113.966 43.9569 114.656 43.9144C115.063 44.4064 116.235 44.1962 116.558 44.7553C116.855 45.2674 117.736 45.4397 118.121 45.9048C118.327 46.1464 119.409 46.1866 119.786 45.9854C120.029 45.8556 120.138 46.1933 120.365 45.9854C120.701 45.6745 120.946 46.2806 121.227 46.0703C121.574 45.8109 121.774 46.0167 122.079 46.0703C122.225 46.0782 122.364 46.1258 122.476 46.2063C122.588 46.2868 122.667 46.3958 122.702 46.5176C122.834 46.557 122.978 46.5624 123.114 46.5333C123.517 46.171 124.231 46.2314 124.755 46.0278C124.984 45.9406 125.409 46.0592 125.745 46.0882C125.817 46.0846 125.89 46.0934 125.958 46.114C126.026 46.1346 126.089 46.1667 126.142 46.2083C126.196 46.2499 126.239 46.3003 126.27 46.3565C126.301 46.4127 126.318 46.4735 126.321 46.5355C126.361 46.6928 126.465 46.8327 126.614 46.9296C126.764 47.0265 126.949 47.0739 127.137 47.0633C127.564 47.0633 127.548 47.3474 127.705 47.3653C128.082 47.41 128.098 47.5889 128.226 47.732C128.278 47.5621 128.335 47.3943 128.379 47.2244C128.383 47.1429 128.396 47.062 128.418 46.9828C128.437 46.9493 128.554 46.9224 128.627 46.9202C128.704 46.9179 128.779 46.9342 128.846 46.9672C128.867 47.5688 129.588 47.7186 130.271 47.9266C130.578 48.0609 130.865 48.2269 131.126 48.4209C131.488 48.6266 131.608 49.0605 132.35 48.9353C132.452 48.9174 132.788 49.1589 132.783 49.264C132.783 49.519 132.991 49.5548 133.267 49.633C133.898 49.7792 134.485 50.0384 134.99 50.3934C135.077 50.4645 135.18 50.5193 135.293 50.5544C135.406 50.5894 135.526 50.6039 135.646 50.597C135.816 50.597 136.102 50.7177 136.131 50.8206C136.23 51.1225 136.691 51.2299 136.873 51.4625C137.056 51.6951 137.074 51.9098 137.478 52.0529C137.676 52.1267 137.655 52.4331 137.762 52.6277C137.871 52.8534 138.009 53.068 138.174 53.2673C138.204 53.3114 138.245 53.3492 138.295 53.3781C138.344 53.4069 138.4 53.4261 138.459 53.4342C138.518 53.4423 138.578 53.4392 138.636 53.425C138.693 53.4109 138.746 53.386 138.791 53.3523C138.997 53.2226 139.028 53.3053 139.052 53.435C139.077 53.5694 139.145 53.6953 139.247 53.7996C139.643 54.1462 139.708 54.1395 140.089 53.7817C140.131 53.7298 140.185 53.6858 140.248 53.6523C140.311 53.6188 140.38 53.5965 140.453 53.5867C140.526 53.5769 140.601 53.5798 140.672 53.5952C140.744 53.6107 140.811 53.6383 140.87 53.6766C141.36 53.9293 141.816 54.2133 142.337 54.4325C142.732 54.5698 143.139 54.6805 143.554 54.7635C144.075 54.3811 144.354 54.7411 144.653 54.9379C144.914 55.099 145.094 55.1772 145.396 54.976C145.578 54.9622 145.76 54.9974 145.917 55.0766C146.571 55.4188 147.163 55.8191 147.858 56.1188C148.334 56.2796 148.834 56.382 149.343 56.423C149.645 56.4543 149.951 56.4543 150.253 56.423C150.775 56.379 151.303 56.4055 151.816 56.5012C152.454 56.6444 152.509 56.6377 152.858 56.3223C152.903 56.2865 152.858 56.1814 152.887 56.1702C153.147 56.0964 153.392 56.0405 153.645 55.9779C153.537 55.8471 153.455 55.701 153.405 55.5463C153.405 55.468 153.583 55.3338 153.715 55.3092C154.106 55.2399 154.578 55.2555 154.427 54.8507C154.513 54.8447 154.601 54.8447 154.687 54.8507C154.805 55.1705 155.109 55.345 155.604 55.4367C155.899 55.4926 155.998 55.8661 156.41 55.7274C156.628 55.6536 156.701 55.4188 156.892 55.2801C157.042 55.1782 157.222 55.1154 157.413 55.099C157.619 55.0878 157.874 55.222 158.038 55.1795C158.26 55.1213 158.4 54.9558 158.603 54.844C158.79 54.7311 159.004 54.6548 159.229 54.6204C159.372 54.6204 159.515 54.8015 159.693 54.8574C160.229 55.0364 160.568 55.4456 161.282 55.421C161.316 55.421 161.386 55.4412 161.386 55.4523C161.368 55.8392 162.074 55.8392 162.259 56.1233C162.337 56.2418 162.52 56.329 162.66 56.4341C162.9 56.631 163.103 56.6265 163.39 56.4498C163.887 56.1434 164.677 56.0293 164.859 55.515C164.881 55.4896 164.908 55.4683 164.939 55.4525C164.971 55.4367 165.006 55.4268 165.042 55.4233C165.883 55.468 166.238 54.976 166.842 54.7769C167.272 54.6383 167.314 54.3766 167.603 54.2066C167.892 54.0366 167.908 53.7392 168.361 54.068C168.473 54.0911 168.59 54.0792 168.692 54.0344C168.937 53.6408 169.44 53.4395 169.945 53.1957C170.258 53.0459 170.406 52.7171 170.844 52.5829C171.185 52.4778 171.365 52.2542 171.678 52.1088C171.991 51.9634 172.009 51.6615 172.46 52.0104C172.655 52.167 172.962 52.1178 173.241 51.9813C173.887 51.666 174.742 51.7845 175.461 51.5944C175.66 51.5662 175.865 51.5936 176.045 51.6727C176.182 51.7478 176.345 51.7815 176.507 51.7685C176.669 51.7556 176.822 51.6967 176.941 51.6011C176.969 51.5779 177 51.5583 177.035 51.543C177.324 51.4473 177.622 51.3724 177.926 51.3193C178.312 51.2724 178.163 51.5631 178.366 51.6727C178.801 51.912 178.872 51.95 179.205 51.6481C179.441 51.4136 179.658 51.1656 179.854 50.9056C180.115 50.5858 180.19 50.5657 180.69 50.758C181.3 50.9816 181.886 51.2321 182.069 51.7398C182.137 51.9277 182.454 52.0842 182.689 52.2363C182.801 52.2631 182.92 52.2519 183.022 52.205C183.064 52.1678 183.113 52.1381 183.169 52.1179C183.224 52.0977 183.283 52.0872 183.343 52.0872C183.403 52.0872 183.462 52.0977 183.517 52.1179C183.572 52.1381 183.622 52.1678 183.663 52.205C184.067 52.4897 184.584 52.6277 185.104 52.5897C185.412 52.574 185.451 52.6903 185.446 52.8446C185.446 52.858 185.56 52.8849 185.623 52.8849C186.316 52.8849 186.816 52.9229 187.045 53.0437C187.437 53.2491 187.878 53.3749 188.335 53.4114C188.792 53.4478 189.253 53.3939 189.682 53.2539C189.943 53.1801 190.367 53.1018 190.37 53.4954C190.37 53.7996 190.75 54.0053 191.152 54.0411C191.428 54.0538 191.691 54.1477 191.897 54.3073C192.282 54.6002 192.678 54.5309 193.239 54.4907C194.281 54.4213 195.143 53.9584 196.232 54.0434C196.371 54.0461 196.506 54.0738 196.631 54.1246C196.756 54.1755 196.867 54.2484 196.957 54.3386C197.426 54.7232 197.798 55.0721 197.949 55.591C198.111 56.1524 198.768 56.6287 199.513 57C199.536 57 199.706 56.9508 199.711 56.9172C199.708 56.7784 199.714 56.6395 199.729 56.5012C199.786 56.3246 200.169 56.2396 200.511 56.3089C200.935 56.3939 201.251 56.2888 201.292 56.0271C201.324 55.8035 201.274 55.5798 201.308 55.3562C201.351 55.226 201.424 55.1044 201.522 54.9983C201.553 54.9536 201.639 54.9268 201.701 54.8932C201.74 54.9379 201.808 54.9804 201.813 55.0274C201.832 55.137 201.813 55.2511 201.813 55.3606C201.855 55.5843 202.019 55.6223 202.316 55.4747C202.559 55.3517 202.751 55.0833 203.056 55.4322C203.163 55.5552 203.254 55.4904 203.431 55.4501C204.158 55.2757 204.539 54.8597 205.049 54.5421C205.331 54.3676 205.435 54.437 205.62 54.5712C205.784 54.7103 205.971 54.8271 206.175 54.9178C206.558 55.0587 206.824 55.3226 207.478 55.0856C207.926 54.9178 208.658 55.0587 209.263 55.0632C209.818 55.4993 210.552 55.3226 211.146 55.1929C211.318 55.1427 211.5 55.1257 211.681 55.1431C211.861 55.1605 212.034 55.2119 212.189 55.2935C212.523 55.4953 212.93 55.5888 213.338 55.5575C214.137 55.5703 214.926 55.7145 215.662 55.9824C215.858 56.0337 216.064 56.0563 216.269 56.0495C216.569 56.0495 216.866 56.0271 217.084 56.2127C217.199 56.2164 217.313 56.1948 217.415 56.1501C217.46 56.1322 217.48 56.0226 217.447 56.0025C217.11 55.8079 217.061 55.5015 217.222 55.3316C217.504 55.0341 217.978 54.8127 218.374 54.56C218.611 54.8686 218.835 54.4951 219.072 54.56C219.31 54.6248 219.489 54.8664 219.833 54.645C219.872 54.6204 220.172 54.7903 220.37 54.8373C220.515 54.8653 220.666 54.8607 220.808 54.8239C221.459 54.6383 222.03 54.6629 222.499 55.0475C222.585 55.1203 222.688 55.1757 222.802 55.2098C222.916 55.2438 223.038 55.2556 223.158 55.2443C223.491 55.2287 223.94 55.1884 224.145 55.3025C224.513 55.4993 224.586 55.1437 224.906 55.2153C225.167 55.2689 225.521 55.1348 225.826 55.0677C226.131 55.0006 226.501 54.9022 226.834 54.8149C226.907 54.7948 227.004 54.73 227.04 54.7411C227.322 54.844 227.606 55.0565 227.866 55.0453C228.197 55.0319 228.444 54.8082 228.851 55.0453C229.078 55.184 229.411 55.2242 229.468 55.4926C229.642 55.5673 229.839 55.5901 230.029 55.5575C230.124 55.5255 230.211 55.4774 230.285 55.4159C230.358 55.3544 230.416 55.2808 230.456 55.1996C230.493 54.9774 230.501 54.7524 230.479 54.5287C230.479 54.4839 230.563 54.4437 230.607 54.4012C230.671 54.4375 230.732 54.4771 230.789 54.5197C230.862 54.5801 230.967 54.645 230.987 54.7143C231.066 54.9737 231.274 54.938 231.509 54.8172C232.082 54.4944 232.767 54.3506 233.45 54.4101C234.114 54.4683 234.666 54.2379 235.297 54.2223C235.871 54.2004 236.443 54.1459 237.009 54.059C237.303 54.0165 237.53 53.8846 237.514 53.6497C237.514 53.5782 237.626 53.5044 237.686 53.4261C238.207 53.7906 238.223 53.3926 238.411 53.2338C238.71 52.9766 239.244 53.0616 239.63 52.9028C239.979 52.7892 240.314 52.6469 240.631 52.4778C240.709 52.413 240.87 52.3593 240.891 52.2944C240.995 51.5162 242.064 51.704 242.746 51.581C243.338 51.4759 243.528 51.5027 243.864 51.25C244.2 50.9973 244.489 50.8027 245.063 50.8855C245.322 50.9069 245.584 50.9069 245.844 50.8855C246.175 50.8855 246.201 50.7021 246.05 50.6126C245.62 50.3621 245.954 50.2347 246.193 50.0848C246.293 50.0124 246.411 49.9624 246.539 49.9394C246.666 49.9163 246.798 49.921 246.923 49.9529C247.879 50.0826 248.828 50.2324 249.789 50.3778C250.295 50.4539 250.808 50.4832 251.321 50.465C251.842 50.4471 252.288 50.2056 252.848 50.2033C253.065 50.1704 253.261 50.073 253.403 49.9283C253.612 49.7522 253.78 49.5434 253.898 49.3132C254.028 49.0247 254.138 48.8212 254.68 49.0404C254.742 49.0672 254.99 48.9666 255.081 48.8883C255.115 48.8506 255.159 48.8202 255.209 48.7992C255.259 48.7783 255.314 48.7674 255.37 48.7674C255.426 48.7674 255.481 48.7783 255.531 48.7992C255.581 48.8202 255.625 48.8506 255.659 48.8883C255.77 48.8907 255.879 48.8684 255.977 48.8234C255.938 48.4388 256.631 48.5618 256.829 48.3091C256.993 48.0988 257.376 47.9602 257.629 47.7701C257.821 47.6034 257.997 47.4248 258.158 47.2356C258.345 47.0455 258.418 46.8129 258.94 46.8643C259.155 46.8704 259.37 46.8396 259.571 46.7735C259.772 46.7075 259.956 46.6076 260.112 46.4796C260.404 46.2873 260.683 46.124 260.698 45.793C260.714 45.5045 261.011 45.216 261.219 44.9454C261.266 44.8873 261.527 44.9029 261.683 44.8761C261.878 44.8418 262.071 44.8038 262.262 44.762C262.561 44.6949 262.348 44.3147 262.903 44.3572C263.119 44.3729 263.374 44.1694 263.611 44.0642C263.848 43.9591 264.148 43.8272 264.424 43.7131C264.639 43.6508 264.846 43.5691 265.042 43.4693C265.175 43.3626 265.336 43.2839 265.511 43.2392C265.686 43.1946 265.87 43.1854 266.05 43.2121C266.498 43.277 266.853 43.1137 267.246 43.0422C267.694 43.3978 267.973 43.1137 268.252 42.9236C268.358 42.8434 268.482 42.7822 268.616 42.7438C268.75 42.7054 268.892 42.6905 269.033 42.7C269.445 42.7179 269.867 42.7559 270.242 42.5524C270.334 42.5009 270.62 42.6016 270.821 42.6262C270.967 42.6463 271.183 42.7 271.253 42.6597C271.514 42.501 271.712 42.3533 272.155 42.5233C272.306 42.5688 272.468 42.5808 272.626 42.5581C272.784 42.5354 272.933 42.4789 273.059 42.3936C273.877 42.7783 274.145 42.3623 274.463 42.0045C274.513 41.9463 274.635 41.915 274.724 41.8725C275.102 42.2616 275.672 41.7048 276.128 42C276.347 42.1409 276.574 42 276.537 41.7763C276.532 41.694 276.495 41.6155 276.433 41.5527C276.136 41.3 276.605 41.3469 276.641 41.376C276.676 41.4142 276.72 41.4447 276.771 41.465C276.822 41.4854 276.878 41.495 276.934 41.493C276.99 41.491 277.045 41.4776 277.094 41.4537C277.143 41.4298 277.184 41.3963 277.215 41.3559C277.355 41.2217 277.475 41.1971 277.692 41.3313C277.749 41.3671 278.03 41.2552 278.213 41.2172C278.603 41.1345 278.035 40.6492 278.734 40.7006C279.218 40.7364 279.323 40.4143 279.643 40.2958C279.791 40.2475 279.946 40.2166 280.104 40.2041C280.365 40.175 280.766 40.2936 280.698 39.9491C280.791 39.9463 280.883 39.9515 280.974 39.9648C281.477 40.09 281.889 40.1191 282.142 39.7076C282.176 39.6547 282.224 39.6098 282.283 39.5769C282.342 39.544 282.41 39.5241 282.48 39.519C282.55 39.5139 282.621 39.5238 282.685 39.5477C282.75 39.5716 282.807 39.6089 282.85 39.6562C282.916 39.6931 282.995 39.7074 283.072 39.6964C283.812 39.2961 284.195 39.6964 284.635 39.9737C285.156 40.2958 285.109 40.2645 285.654 39.8843C286.199 39.5041 286.615 39.1105 286.74 38.5938C286.74 38.5603 287.043 38.5536 287.202 38.5335L287.572 38.2136C287.62 38.1606 287.683 38.1177 287.753 38.0882C287.824 38.0588 287.902 38.0434 287.981 38.0434C288.059 38.0434 288.137 38.0588 288.208 38.0882C288.279 38.1177 288.341 38.1606 288.39 38.2136C288.635 38.4015 288.929 38.5715 289.036 38.1398C289.117 38.1199 289.203 38.1199 289.283 38.1398C289.422 38.2025 289.528 38.2964 289.659 38.3635C289.83 38.4819 290.04 38.5508 290.26 38.5605C290.479 38.5701 290.696 38.5199 290.881 38.4172C291.17 38.2382 291.48 38.2628 291.793 38.1935C292.939 37.9699 294.205 38.1667 295.297 37.7775C296.339 37.9788 297.17 37.5695 298.077 37.3794C298.238 37.3422 298.409 37.3533 298.562 37.4107C298.807 37.6053 299.117 37.5338 299.401 37.536C299.945 37.536 300.485 37.5136 300.964 37.7596C301.139 37.8389 301.334 37.8789 301.532 37.8759C302.233 37.8603 302.913 37.8491 303.356 38.2942C303.407 38.3426 303.478 38.3729 303.554 38.3791C304.385 38.3322 304.997 38.7124 305.745 38.8264C305.978 38.8499 306.213 38.8499 306.446 38.8264C306.558 38.8264 306.707 38.7124 306.764 38.7325C307.004 38.813 307.228 39.0121 307.441 39.0031C307.655 38.9942 307.791 38.6878 308.16 38.7258C308.603 38.7728 309.07 38.9159 309.463 38.8622C309.828 38.8153 310.102 38.5312 310.459 38.397C311.118 38.1488 311.115 38.1734 311.688 38.5961C311.886 38.7273 312.118 38.8169 312.363 38.8577C312.431 38.8577 312.66 38.6721 312.707 38.5536C312.788 38.3501 312.968 38.368 313.168 38.4283C313.369 38.4887 313.656 38.5267 313.689 38.6073C313.9 39.2178 314.82 39.1418 315.422 39.3475C316.051 39.5588 316.713 39.6906 317.387 39.7389C318.491 39.8194 319.549 40.1012 320.683 40.0677C321.186 40.4166 321.357 40.1258 321.584 39.8865C321.811 39.6472 321.886 39.6629 322.105 39.9134C322.259 40.0945 322.434 40.2712 322.587 40.4523C322.871 40.7901 323.33 40.8527 323.538 40.5306C323.799 40.1191 324.192 40.0073 324.799 40.0587C325.32 40.1035 325.164 39.9447 325.01 39.7814C325.164 39.7322 325.336 39.6226 325.466 39.6405C325.899 39.7009 326.308 39.8172 326.738 39.8821C326.816 39.8821 327.045 39.7635 327.038 39.7143C326.912 39.0948 327.848 39.267 328.26 39.0836C328.451 39.0179 328.661 39.0041 328.862 39.0441C329.063 39.0841 329.244 39.1759 329.382 39.3073C329.436 39.3542 329.497 39.3935 329.565 39.4236C329.655 39.4641 329.747 39.5007 329.841 39.5332C329.841 39.437 329.82 39.3431 329.807 39.2491C329.807 39.1887 329.789 39.1306 329.779 39.0724C329.865 39.0724 329.977 39.0456 330.039 39.0724C330.173 39.1354 330.299 39.2104 330.414 39.2961C330.756 39.5197 331.084 39.7434 331.592 39.4258C331.751 39.3777 331.923 39.3692 332.087 39.4012C332.267 39.4212 332.45 39.4071 332.624 39.36C332.797 39.3128 332.956 39.2338 333.09 39.1284C333.301 38.974 333.525 38.7303 333.895 39.021C334.266 38.8922 334.626 38.7427 334.974 38.5737C335.211 38.4418 335.344 38.3769 335.542 38.5737C335.62 38.6464 335.719 38.7004 335.829 38.7303C336.089 38.8108 336.436 38.6811 336.428 38.491C336.403 38.2152 336.495 37.9409 336.688 37.7194C336.803 37.5874 336.793 37.5964 336.996 37.6568C337.863 37.9207 337.887 37.9274 338.762 37.6568C338.981 37.5672 339.225 37.5347 339.464 37.5633C339.704 37.592 339.928 37.6805 340.109 37.8178C340.32 37.9676 340.584 37.9699 340.607 37.7082C340.664 37.1066 341.618 37.0909 342.095 36.7666C342.548 37.1044 342.731 36.7488 342.999 36.6213C343.473 36.3976 343.726 36.0062 344.354 35.8922C344.429 35.8788 344.481 35.7714 344.515 35.7021C344.708 35.2861 345.237 35.1027 345.818 34.9998C346.399 34.897 346.746 34.7404 346.86 34.3803C346.92 34.1992 347.017 34.2372 347.16 34.3378C347.353 34.4698 347.504 34.6532 347.822 34.3893C348.023 34.2847 348.254 34.232 348.489 34.2372C349.27 34.2037 349.95 34.0695 350.474 33.6758C350.61 33.5707 350.81 33.3985 350.941 33.4119C352.03 33.5282 352.53 32.8976 353.327 32.656C353.656 32.5554 353.934 32.2669 354.302 32.4324C354.583 32.5643 354.977 32.2959 355.167 32.6091C355.284 32.8036 355.568 32.7723 355.779 32.6091C355.832 32.5618 355.893 32.5225 355.961 32.4928C356.298 32.3653 356.441 31.9247 356.941 32.1215C357.379 32.2959 357.546 31.9538 357.955 32.0343C358.304 32.1014 358.249 32.2467 358.395 32.3429C358.497 32.41 358.588 32.656 358.835 32.4749C359.166 32.2289 359.401 32.1886 359.617 32.5196C359.672 32.6001 359.825 32.7276 359.878 32.7186C360.419 32.618 360.519 33.0742 360.969 33.0586C361.045 33.0508 361.115 33.0208 361.167 32.9736C361.251 32.8976 361.298 32.8036 361.389 32.7321C361.43 32.6985 362.045 32.2423 362.082 32.2378C362.47 32.1864 361.561 31.8979 362.254 31.8844C362.652 31.8844 362.394 31.6205 362.483 31.4908C362.567 31.4639 362.66 31.4639 362.744 31.4908C363.241 31.7324 363.726 31.9873 364.224 32.2289C364.303 32.2425 364.386 32.2355 364.461 32.2087C364.489 32.2087 364.502 32.117 364.476 32.0991C364.299 31.9739 364.093 31.8755 363.932 31.7391C363.77 31.6026 363.27 31.5154 363.671 31.218C364.192 30.8512 364.453 30.7863 364.922 31.0569C365.245 31.2381 365.443 31.2806 365.769 31.0815C365.862 31.0256 366.232 31.1263 366.449 31.1911C366.698 31.2729 366.939 31.3708 367.17 31.4841C367.418 31.5959 367.527 31.6183 367.715 31.3947C368.064 30.9809 368.611 30.9474 369.132 31.2381C369.265 31.3119 369.369 31.4036 369.508 31.4617C369.593 31.4792 369.681 31.4838 369.768 31.4752C369.768 31.4193 369.792 31.3589 369.768 31.3097C369.745 31.2605 369.635 31.2359 369.594 31.1889C369.552 31.1419 369.594 31.1643 369.888 31.0435C370.297 30.8803 370.623 30.7461 371.152 30.8646C371.305 30.8982 371.628 30.5895 371.899 30.4576C372.096 30.3566 372.308 30.2812 372.53 30.2339C372.918 30.1579 373.377 30.0103 373.708 30.0886C374.039 30.1668 374.213 30.471 374.489 30.6521C374.624 30.6868 374.767 30.696 374.906 30.679C374.995 30.2317 375.748 30.4553 376.042 30.2317C376.49 30.4799 377.071 30.0483 377.566 30.3838C377.738 30.5007 377.949 30.5673 378.168 30.5737C378.387 30.5802 378.603 30.5261 378.783 30.4196C379.088 30.2652 379.698 30.509 380.104 30.2473C380.316 30.2915 380.517 30.3672 380.698 30.471C381.178 30.7349 381.167 30.7394 381.704 30.5045C381.783 30.4648 381.874 30.4476 381.965 30.4553C382.143 30.5416 382.346 30.5849 382.551 30.5806C382.756 30.5762 382.956 30.5245 383.129 30.4307C383.272 30.398 383.424 30.4141 383.554 30.4755C383.94 30.7483 384.122 30.301 384.442 30.3882C384.497 30.2675 384.614 30.1445 384.596 30.0282C384.521 29.5473 384.927 29.8895 385.138 29.885C385.487 29.885 385.842 29.9723 386.008 29.6055C386.109 29.4554 386.262 29.336 386.445 29.2643C386.629 29.1925 386.834 29.1718 387.032 29.2052C387.168 29.2186 387.324 29.0039 387.509 28.9614C387.645 28.9323 387.858 29.0665 388.002 29.0419C388.187 29.0106 388.458 28.9032 388.478 28.8182C388.577 28.4157 388.783 28.5834 389.145 28.6796C389.31 28.7243 389.531 28.9949 389.81 28.778C389.87 28.7113 389.915 28.6354 389.943 28.5543C389.973 28.6307 390.019 28.7013 390.081 28.7623C390.246 28.8499 390.435 28.8962 390.629 28.8962C390.823 28.8962 391.013 28.8499 391.178 28.7623C391.283 28.6561 391.378 28.5424 391.462 28.4224C391.644 28.239 392.038 28.1227 392.223 28.239C392.767 28.5767 393.502 28.2032 394.026 28.494C394.065 28.5141 394.211 28.4694 394.286 28.438C394.448 28.3493 394.623 28.2801 394.807 28.2323C395.449 28.1333 396.102 28.0958 396.754 28.1205C397.053 28.1495 397.251 28.2524 397.483 28.0668C397.564 28.0042 397.665 27.9505 397.759 27.8901C398.106 27.6665 398.431 28.2345 398.723 27.9237C398.953 27.6776 399.299 27.8722 399.588 27.7537C399.94 27.6083 400.307 27.9415 400.341 28.0757C400.44 28.4738 400.993 28.3195 401.274 28.4694C401.358 28.4955 401.45 28.4955 401.535 28.4694C402.17 28.1764 403.033 28.0646 403.426 27.5748C403.674 27.2728 404.059 27.1744 404.5 27.0425C405.345 26.8182 406.173 26.5478 406.978 26.2329C407.363 26.0674 407.913 26.0674 408.338 25.9287C408.762 25.7901 409.119 25.5418 409.562 25.4009C409.763 25.3361 410.07 25.4009 410.232 25.2309C410.365 25.1194 410.534 25.0449 410.717 25.0174C410.901 24.9899 411.089 25.0105 411.258 25.0766C411.727 25.345 411.91 25.1415 412.202 24.9805C412.332 24.9211 412.482 24.9014 412.626 24.9246C413.392 25.4747 414.588 25.5731 415.43 26.0428C415.938 25.9846 415.771 26.3604 416.058 26.4431C416.194 26.5044 416.344 26.5402 416.498 26.5482C417.069 26.4476 417.056 26.4431 417.241 26.5326C417.6 26.7093 417.981 27.0112 418.249 26.4632C418.467 26.4079 418.698 26.4079 418.916 26.4632C419.281 26.5751 419.581 26.7786 419.958 26.8882C420.138 26.9418 420.43 26.8882 420.109 26.6891C420.086 26.6735 420.214 26.5102 420.323 26.4655C420.607 26.3559 420.474 26.5572 420.552 26.6019C420.666 26.6644 420.796 26.7034 420.93 26.716C421.115 26.5594 421.363 26.5773 421.621 26.5572C422.032 26.5281 422.473 26.3335 422.741 26.7182C423.009 27.1029 423.616 26.7763 424.01 26.991C424.151 27.0671 424.711 26.9396 424.943 26.8077C425.242 26.6272 425.604 26.5383 425.969 26.5549C426.121 26.5382 426.264 26.4864 426.384 26.4051C426.613 26.2687 426.806 26.1054 427.116 26.3447C427.22 26.3978 427.344 26.4146 427.462 26.3917C427.983 26.1926 428.679 26.4521 429.171 26.1367C429.307 26.1036 429.449 26.0967 429.588 26.1166C429.687 26.5862 430.43 26.7204 430.763 27.047C431.09 27.3291 431.501 27.5274 431.952 27.6195C432.637 27.8096 432.877 27.7738 433.025 27.3265C433.114 27.0581 433.158 26.9866 433.57 27.1409C434.239 27.3914 434.904 27.1096 435.393 26.9307C435.658 26.8082 435.952 26.7407 436.253 26.7338C436.553 26.7268 436.852 26.7804 437.124 26.8904C437.817 27.1454 438.57 27.3377 439.289 27.5613C439.616 27.6438 439.929 27.7642 440.219 27.9192C440.351 28.0056 440.507 28.0622 440.671 28.0837C440.835 28.1052 441.003 28.0909 441.159 28.0422C441.855 27.7268 442.35 27.9661 442.796 28.2345C443.075 28.4045 443.145 28.3061 443.372 28.2166C443.862 28.0279 444.369 27.8716 444.888 27.7492C445.016 27.7179 445.232 27.8521 445.409 27.8901C445.717 27.9611 446.029 28.0164 446.344 28.0556C446.587 28.0802 446.889 28.1048 446.866 27.832C446.944 27.7722 447.045 27.7381 447.15 27.7358C447.484 27.895 447.871 27.9538 448.248 27.9028C448.626 27.8517 448.973 27.6937 449.234 27.454C449.255 27.4361 449.354 27.454 449.411 27.454L450.654 27.7022C451.04 27.3109 451.376 27.8454 451.761 27.7358C451.808 27.7224 451.993 27.8409 452.043 27.9192C452.134 28.0623 452.183 28.1026 452.303 27.9371C452.381 27.8581 452.468 27.7868 452.564 27.7246C452.643 27.8054 452.73 27.8802 452.824 27.9483C452.907 28.0063 453.006 28.0449 453.111 28.0601C453.533 28.1066 453.957 28.1343 454.382 28.1428C454.841 28.1428 455.3 28.0802 455.758 28.0668C456.217 28.0534 456.714 28.0668 457.191 28.0668C457.343 28.0481 457.487 27.9974 457.611 27.9192C457.837 27.7895 458.028 27.6106 458.348 27.8454C458.474 27.8351 458.594 27.7913 458.689 27.7201C458.773 27.6061 458.742 27.4562 458.817 27.3377C458.981 27.0716 459.354 27.0291 459.7 27.2281C459.83 27.2971 459.952 27.3765 460.065 27.4652C460.216 27.5949 460.292 27.5256 460.443 27.4652C461.024 27.1856 461.063 27.17 461.589 27.4652C461.92 27.6486 462.186 27.6128 462.303 27.416C462.467 27.1431 462.689 27.0604 463.127 27.076C463.345 27.076 463.596 26.9105 463.794 26.9374C464.012 26.9951 464.212 27.0971 464.375 27.2348C464.653 27.4227 464.818 26.9508 465.099 27.1946C465.193 27.2856 465.312 27.3542 465.446 27.3934C465.58 27.4326 465.724 27.4412 465.862 27.4182C466.159 27.3735 466.313 27.5256 466.532 27.5927C467.019 27.7244 467.515 27.8312 468.017 27.9125C468.054 27.9125 468.176 27.8476 468.176 27.8118C468.194 27.4428 468.413 27.6396 468.572 27.7559C468.648 27.8096 468.632 27.9169 468.71 27.9662C469.117 28.2211 469.38 28.5365 470.094 28.6147C470.86 28.6997 471.548 29.1135 472.381 28.7512C472.744 29.0285 473.101 28.6751 473.471 28.7512C473.761 28.8297 474.065 28.8667 474.369 28.8607C474.669 28.8317 474.932 28.6237 475.229 28.6013C475.594 28.5745 475.784 28.5499 475.75 28.2793C475.75 28.1443 475.806 28.0137 475.907 27.9102C475.956 27.8798 476.013 27.8583 476.072 27.8471C476.132 27.836 476.193 27.8354 476.253 27.8454C476.418 27.9297 476.575 28.0255 476.722 28.1317C477.071 28.3352 477.17 28.3016 477.303 27.9594C477.343 27.8895 477.39 27.8228 477.444 27.7604C477.467 27.8416 477.51 27.9177 477.569 27.984C477.653 28.0428 477.754 28.08 477.861 28.0914C478.034 28.1048 478.209 28.1048 478.382 28.0914C478.739 28.0757 478.502 28.6259 479.02 28.3866C479.208 28.2994 479.221 28.069 479.573 28.0511C479.68 28.0511 479.773 27.9438 479.883 27.9326C480.042 27.9192 480.227 27.9326 480.047 28.0959C479.969 28.1674 479.93 28.3531 479.966 28.3642C480.194 28.4443 480.435 28.4934 480.68 28.5096C481.002 28.5061 481.324 28.4882 481.644 28.4559C481.837 28.8697 482.165 28.8697 482.637 28.6125C482.697 28.5789 482.926 28.7042 483.069 28.6952C483.445 28.6751 483.697 29.1425 484.153 28.8048C484.247 28.821 484.336 28.8538 484.414 28.901C484.771 29.1582 485.31 29.1246 485.753 29.2499C486.123 29.3505 486.592 29.1582 486.98 29.3684C487.306 29.5429 487.856 29.2879 488.132 29.5921C488.254 29.5429 488.424 29.5093 488.484 29.4378C488.544 29.3662 488.484 29.2655 488.76 29.3259C489.264 29.4653 489.797 29.5088 490.323 29.4534C490.628 29.4194 490.937 29.4617 491.215 29.5752C491.492 29.6886 491.725 29.8685 491.886 30.093C492.08 30.4107 492.369 30.6785 492.723 30.8691C492.861 30.934 493.121 31.0324 493.163 31.0078C493.288 30.9166 493.387 30.8018 493.452 30.6723C493.536 30.5381 493.288 30.348 493.663 30.2541C494.039 30.1601 494.609 29.9387 494.815 30.1132C494.958 30.2372 495.132 30.3309 495.324 30.3868C495.516 30.4427 495.721 30.4593 495.922 30.4352C495.964 30.4352 495.998 30.5739 496.063 30.6365C496.602 31.1755 497.408 31.4215 498.377 31.417C498.843 31.417 499.211 31.4618 499.505 31.7055C499.607 31.7545 499.728 31.7673 499.841 31.7413C499.879 31.7169 499.91 31.6851 499.93 31.6486C499.951 31.612 499.962 31.5718 499.961 31.5311C499.977 31.3074 499.961 31.0838 499.961 30.8601L500 12Z" fill="white"/>
<path d="M500 9.40616e-07L-6.58619e-06 -4.27708e-05L-9.49062e-06 33.2227C0.0859728 33.2227 0.200616 33.2003 0.260543 33.2227C0.935373 33.5559 1.63887 33.8154 2.54559 33.7282C2.67326 33.7147 2.8348 33.8109 2.96769 33.8668C3.60604 34.1419 3.80928 34.1754 4.86712 34.2269C4.93256 34.2308 4.9962 34.2469 5.05376 34.2739C5.11132 34.3009 5.16141 34.3383 5.20061 34.3834C5.3413 34.6787 5.667 34.739 6.08388 34.7189C6.88638 34.6787 7.48044 34.8822 7.87388 35.3384C8.26731 35.7946 9.23916 35.6895 9.75766 36.0451C10.5888 36.0116 11.4591 36.1927 12.246 35.8863C12.9547 35.609 13.7259 35.7477 14.4737 35.7298C14.7342 36.0988 15.3048 35.58 15.5888 35.8863C15.9875 35.8304 16.3966 35.7969 16.7796 35.7141C17.1626 35.6314 17.4935 35.4368 17.8713 35.4033C18.2491 35.3697 18.4914 35.3652 18.58 35.0924C18.6087 35.0119 18.8093 34.9202 18.9552 34.8934C19.2157 34.8464 19.4763 34.6138 19.7577 34.9336C20.198 35.4346 21.1751 35.2825 21.8239 35.5486C21.8624 35.5571 21.9026 35.5589 21.9419 35.5539C21.9813 35.5489 22.0191 35.5372 22.0531 35.5196C22.5508 35.0298 22.8348 35.4368 23.1683 35.6202C23.2508 35.6501 23.3424 35.6556 23.4289 35.6359C23.7467 35.2646 24.1271 35.533 24.4242 35.6202C24.4853 35.6436 24.5514 35.6557 24.6183 35.6557C24.6852 35.6557 24.7513 35.6436 24.8124 35.6202C25.0412 35.5681 25.2397 35.4455 25.37 35.2758C25.4247 35.2132 25.7869 35.5531 26.0604 35.3026C26.2559 35.1215 26.8603 35.3921 26.8916 34.9604C26.8916 34.7994 27.6133 35.032 27.6993 34.6205C27.7384 34.4416 28.3794 34.6496 28.7415 34.455C28.9812 34.3208 29.4111 34.1397 29.7342 34.4818C29.7915 34.5445 30.0339 34.5556 30.1928 34.5579C30.5029 34.5579 30.6514 34.5825 30.8129 34.8196C31.0578 35.1774 31.6258 35.1595 32.0427 34.8374C32.0724 34.8052 32.1095 34.7785 32.1517 34.7592C32.194 34.7399 32.2405 34.7283 32.2882 34.7251C32.3359 34.722 32.3839 34.7273 32.4291 34.7409C32.4743 34.7545 32.5158 34.7759 32.5508 34.8039C32.6253 34.8611 32.7218 34.8927 32.8218 34.8927C32.9217 34.8927 33.0182 34.8611 33.0928 34.8039C33.3194 34.6652 33.3272 34.7882 33.3533 34.9001C33.3533 34.947 33.4289 35.0343 33.4549 35.032C34.4554 34.9314 34.8437 35.4793 35.4299 35.8058C35.7113 35.9646 35.9302 36.2173 36.3549 35.902C36.5512 35.8619 36.7575 35.8793 36.9411 35.9512C37.1365 36.0272 37.2486 36.0921 37.4909 35.9937C38.2152 35.703 38.8666 35.9937 39.4085 36.2173C39.7707 36.3717 39.9557 36.3359 40.0573 36.1614C40.2032 35.902 40.2892 35.7432 40.7139 36.0026C40.8569 36.0353 41.0086 36.0251 41.1438 35.9736C41.6363 35.7902 42.2303 35.7074 42.5899 35.3899C43.296 35.4815 43.5435 35.0835 43.9291 34.8531C44.3147 34.6227 44.2053 34.8665 44.3173 34.9783C44.6065 35.2624 45.5237 35.3496 45.8806 35.0969C46.0749 34.9442 46.3066 34.8309 46.5587 34.7655C46.8109 34.7 47.0769 34.6841 47.3372 34.7189C47.8218 34.7771 47.5482 34.4013 47.8583 34.3454C47.9755 34.3231 48.0927 34.1218 48.1865 34.3454C48.4288 34.8934 49.075 34.9403 49.7942 34.8934C50.4299 34.8531 50.8364 34.8509 51.1542 35.0611C51.4721 35.2713 51.7639 35.2221 52.0948 35.2266C52.3814 35.2266 52.6159 34.871 52.9468 35.1886C53.0335 35.0966 53.1266 35.0092 53.2256 34.9269C53.382 34.8106 53.5175 34.6585 53.7832 34.8822C53.8515 34.9448 53.934 34.9947 54.0256 35.0289C54.1173 35.063 54.2161 35.0806 54.316 35.0806C54.4159 35.0806 54.5148 35.063 54.6065 35.0289C54.6981 34.9947 54.7806 34.9448 54.8489 34.8822C55.2333 34.6291 55.717 34.5136 56.1985 34.5601C56.3386 34.5779 56.4816 34.5684 56.6169 34.5324C56.7522 34.4964 56.8763 34.4348 56.9802 34.3521C57.0297 34.3074 57.1053 34.2358 57.16 34.2381C57.8166 34.2694 58.2882 34.1553 58.3533 33.6745C58.3657 33.647 58.3857 33.6224 58.4116 33.603C58.4374 33.5835 58.4684 33.5697 58.5018 33.5627C59.544 33.5627 60.0208 33.0393 60.6514 32.6681C61.0109 32.4444 61.3236 32.2208 61.8239 32.5316C62.3614 32.4754 62.8917 32.3766 63.408 32.2364C63.58 32.0821 63.8796 32.1179 64.0672 32.0486C64.643 31.8249 65.0495 31.8629 65.4742 32.1984C65.9432 32.5652 66.7118 32.5562 67.3423 32.724C67.4604 32.7359 67.5799 32.7155 67.6837 32.6658C68.0823 32.4914 68.2856 32.5026 68.5044 32.7262C68.5904 32.8134 68.6868 32.9007 68.765 32.9901C68.9891 33.2518 68.9865 33.2518 69.2861 33.0393C69.4592 32.8951 69.6825 32.8035 69.922 32.7784C70.1615 32.7534 70.4039 32.7963 70.6123 32.9007C70.854 32.9961 71.0793 33.1195 71.2819 33.2674C71.4956 33.4307 71.6232 33.3502 71.7457 33.2339C71.8681 33.1176 71.9176 32.9991 72.0297 32.8962C72.1417 32.7933 72.2512 32.7016 72.4961 32.8537C72.9036 33.0916 73.3263 33.3096 73.7624 33.5067C73.8952 33.5716 74.1011 33.67 74.2105 33.6454C74.4528 33.5873 74.5258 33.4397 74.3981 33.216L74.372 33.2294C74.3173 33.169 74.2626 33.1087 74.3538 33.1444C74.2704 32.9946 74.3069 32.9521 74.3538 32.9208C74.4101 32.9977 74.4589 33.0785 74.4997 33.1623C75.0756 33.2115 75.2553 33.4933 75.542 33.6521C76.024 33.9227 76.0292 33.9473 76.5373 33.6812C76.6301 33.6165 76.746 33.5813 76.8655 33.5813C76.9851 33.5813 77.101 33.6165 77.1938 33.6812C77.3797 33.6198 77.555 33.5371 77.715 33.4352C78.1318 33.2115 78.6034 33.1377 78.9395 33.3569C79.243 33.5391 79.6141 33.6187 79.9817 33.5806C80.3499 33.5341 80.7246 33.6145 81.024 33.8042C81.2459 33.8921 81.4967 33.9104 81.7327 33.8556C82.1367 33.756 82.5271 33.6195 82.8973 33.4486C83.2882 33.2697 83.2751 33.2473 83.9838 33.2473C84.5049 33.2473 84.6873 32.9834 84.9218 32.7665C85.1212 32.5666 85.3887 32.4256 85.6865 32.3634C85.9844 32.3012 86.2975 32.3209 86.5816 32.4198C87.3632 32.7463 88.0094 32.5697 88.6295 32.2767C88.89 32.1559 89.1272 31.9927 89.4112 32.0866C90.0599 32.3102 90.6644 32.0352 91.2871 32.0866C91.4489 32.1101 91.6148 32.1022 91.7726 32.0635C91.9304 32.0248 92.0761 31.9563 92.1991 31.8629C92.3033 31.7802 92.5847 31.8003 92.7592 31.7422C92.9391 31.6931 93.1032 31.6089 93.2387 31.4962C93.2882 31.4425 93.124 31.315 93.0954 31.2166C93.0667 31.1182 93.0432 30.993 93.1136 30.937C93.3988 30.7167 93.6668 30.4807 93.9161 30.2303C94.1271 29.9552 94.8385 30.0469 94.8463 29.6578C94.8463 29.6309 94.9896 29.575 95.0469 29.584C95.7869 29.6958 96.0683 29.2798 96.5503 29.0785C97.1626 28.8213 97.6837 28.5776 97.7176 28.0542C97.7176 27.9648 98.098 27.9022 98.2387 27.797C98.3794 27.6919 98.4679 27.5197 98.6191 27.4012C99.1402 27.0053 99.6613 26.6229 100.182 26.2293C100.474 26.0056 100.688 25.8468 101.128 26.1711C101.436 26.3948 101.837 26.227 102.084 26.0101C102.332 25.7932 102.572 25.7865 102.934 25.9945C103.218 26.1644 103.585 26.2181 103.762 26.5178C103.898 26.7414 104.263 26.9002 104.776 26.936C105.309 27.0103 105.826 27.1543 106.308 27.3632C106.446 27.4124 106.49 27.5868 106.537 27.7121C106.613 27.997 106.706 28.2784 106.816 28.5552C106.917 28.7112 107.076 28.8339 107.267 28.9041C107.323 28.9274 107.384 28.9392 107.447 28.9386C107.509 28.9381 107.57 28.9252 107.626 28.9009C107.681 28.8767 107.73 28.8417 107.767 28.7988C107.804 28.7559 107.829 28.7062 107.84 28.6536C107.84 28.5731 107.817 28.4836 107.84 28.4054C107.86 28.3685 107.889 28.3359 107.926 28.3099C107.962 28.284 108.005 28.2654 108.051 28.2555C108.105 28.2541 108.159 28.2622 108.209 28.2791C108.259 28.296 108.304 28.3214 108.343 28.3539C108.44 28.5271 108.592 28.6733 108.781 28.7758C108.971 28.8783 109.19 28.9328 109.414 28.9332C109.687 28.9533 110.133 29.1971 110.13 29.3402C110.13 29.6511 110.391 29.7316 110.714 29.8546C110.92 29.9329 111.154 30.0782 111.196 30.2191C111.352 30.7201 112.139 30.9482 112.392 31.4045C112.439 31.4546 112.499 31.4954 112.566 31.524C112.634 31.5525 112.707 31.5682 112.783 31.57C113.517 31.4604 113.966 31.9569 114.656 31.9144C115.063 32.4064 116.235 32.1962 116.558 32.7553C116.855 33.2674 117.736 33.4397 118.121 33.9048C118.327 34.1464 119.409 34.1866 119.786 33.9854C120.029 33.8556 120.138 34.1933 120.365 33.9854C120.701 33.6745 120.946 34.2806 121.227 34.0703C121.574 33.8109 121.774 34.0167 122.079 34.0703C122.225 34.0782 122.364 34.1258 122.476 34.2063C122.588 34.2868 122.667 34.3958 122.702 34.5176C122.834 34.557 122.978 34.5624 123.114 34.5333C123.517 34.171 124.231 34.2314 124.755 34.0278C124.984 33.9406 125.409 34.0592 125.745 34.0882C125.817 34.0846 125.89 34.0934 125.958 34.114C126.026 34.1346 126.089 34.1667 126.142 34.2083C126.196 34.2499 126.239 34.3003 126.27 34.3565C126.301 34.4127 126.318 34.4735 126.321 34.5355C126.361 34.6928 126.465 34.8327 126.614 34.9296C126.764 35.0265 126.949 35.0739 127.137 35.0633C127.564 35.0633 127.548 35.3474 127.705 35.3653C128.082 35.41 128.098 35.5889 128.226 35.732C128.278 35.5621 128.335 35.3943 128.379 35.2244C128.383 35.1429 128.396 35.062 128.418 34.9828C128.437 34.9493 128.554 34.9224 128.627 34.9202C128.704 34.9179 128.779 34.9342 128.846 34.9672C128.867 35.5688 129.588 35.7186 130.271 35.9266C130.578 36.0609 130.865 36.2269 131.126 36.4209C131.488 36.6266 131.608 37.0605 132.35 36.9353C132.452 36.9174 132.788 37.1589 132.783 37.264C132.783 37.519 132.991 37.5548 133.267 37.633C133.898 37.7792 134.485 38.0384 134.99 38.3934C135.077 38.4645 135.18 38.5193 135.293 38.5544C135.406 38.5894 135.526 38.6039 135.646 38.597C135.816 38.597 136.102 38.7177 136.131 38.8206C136.23 39.1225 136.691 39.2299 136.873 39.4625C137.056 39.6951 137.074 39.9098 137.478 40.0529C137.676 40.1267 137.655 40.4331 137.762 40.6277C137.871 40.8534 138.009 41.068 138.174 41.2673C138.204 41.3114 138.245 41.3492 138.295 41.3781C138.344 41.4069 138.4 41.4261 138.459 41.4342C138.518 41.4423 138.578 41.4392 138.636 41.425C138.693 41.4109 138.746 41.386 138.791 41.3523C138.997 41.2226 139.028 41.3053 139.052 41.435C139.077 41.5694 139.145 41.6953 139.247 41.7996C139.643 42.1462 139.708 42.1395 140.089 41.7817C140.131 41.7298 140.185 41.6858 140.248 41.6523C140.311 41.6188 140.38 41.5965 140.453 41.5867C140.526 41.5769 140.601 41.5798 140.672 41.5952C140.744 41.6107 140.811 41.6383 140.87 41.6766C141.36 41.9293 141.816 42.2133 142.337 42.4325C142.732 42.5698 143.139 42.6805 143.554 42.7635C144.075 42.3811 144.354 42.7411 144.653 42.9379C144.914 43.099 145.094 43.1772 145.396 42.976C145.578 42.9622 145.76 42.9974 145.917 43.0766C146.571 43.4188 147.163 43.8191 147.858 44.1188C148.334 44.2796 148.834 44.382 149.343 44.423C149.645 44.4543 149.951 44.4543 150.253 44.423C150.775 44.379 151.303 44.4055 151.816 44.5012C152.454 44.6444 152.509 44.6377 152.858 44.3223C152.903 44.2865 152.858 44.1814 152.887 44.1702C153.147 44.0964 153.392 44.0405 153.645 43.9779C153.537 43.8471 153.455 43.701 153.405 43.5463C153.405 43.468 153.583 43.3338 153.715 43.3092C154.106 43.2399 154.578 43.2555 154.427 42.8507C154.513 42.8447 154.601 42.8447 154.687 42.8507C154.805 43.1705 155.109 43.345 155.604 43.4367C155.899 43.4926 155.998 43.8661 156.41 43.7274C156.628 43.6536 156.701 43.4188 156.892 43.2801C157.042 43.1782 157.222 43.1154 157.413 43.099C157.619 43.0878 157.874 43.222 158.038 43.1795C158.26 43.1213 158.4 42.9558 158.603 42.844C158.79 42.7311 159.004 42.6548 159.229 42.6204C159.372 42.6204 159.515 42.8015 159.693 42.8574C160.229 43.0364 160.568 43.4456 161.282 43.421C161.316 43.421 161.386 43.4412 161.386 43.4523C161.368 43.8392 162.074 43.8392 162.259 44.1233C162.337 44.2418 162.52 44.329 162.66 44.4341C162.9 44.631 163.103 44.6265 163.39 44.4498C163.887 44.1434 164.677 44.0293 164.859 43.515C164.881 43.4896 164.908 43.4683 164.939 43.4525C164.971 43.4367 165.006 43.4268 165.042 43.4233C165.883 43.468 166.238 42.976 166.842 42.7769C167.272 42.6383 167.314 42.3766 167.603 42.2066C167.892 42.0366 167.908 41.7392 168.361 42.068C168.473 42.0911 168.59 42.0792 168.692 42.0344C168.937 41.6408 169.44 41.4395 169.945 41.1957C170.258 41.0459 170.406 40.7171 170.844 40.5829C171.185 40.4778 171.365 40.2542 171.678 40.1088C171.991 39.9634 172.009 39.6615 172.46 40.0104C172.655 40.167 172.962 40.1178 173.241 39.9813C173.887 39.666 174.742 39.7845 175.461 39.5944C175.66 39.5662 175.865 39.5936 176.045 39.6727C176.182 39.7478 176.345 39.7815 176.507 39.7685C176.669 39.7556 176.822 39.6967 176.941 39.6011C176.969 39.5779 177 39.5583 177.035 39.543C177.324 39.4473 177.622 39.3724 177.926 39.3193C178.312 39.2724 178.163 39.5631 178.366 39.6727C178.801 39.912 178.872 39.95 179.205 39.6481C179.441 39.4136 179.658 39.1656 179.854 38.9056C180.115 38.5858 180.19 38.5657 180.69 38.758C181.3 38.9816 181.886 39.2321 182.069 39.7398C182.137 39.9277 182.454 40.0842 182.689 40.2363C182.801 40.2631 182.92 40.2519 183.022 40.205C183.064 40.1678 183.113 40.1381 183.169 40.1179C183.224 40.0977 183.283 40.0872 183.343 40.0872C183.403 40.0872 183.462 40.0977 183.517 40.1179C183.572 40.1381 183.622 40.1678 183.663 40.205C184.067 40.4897 184.584 40.6277 185.104 40.5897C185.412 40.574 185.451 40.6903 185.446 40.8446C185.446 40.858 185.56 40.8849 185.623 40.8849C186.316 40.8849 186.816 40.9229 187.045 41.0437C187.437 41.2491 187.878 41.3749 188.335 41.4114C188.792 41.4478 189.253 41.3939 189.682 41.2539C189.943 41.1801 190.367 41.1018 190.37 41.4954C190.37 41.7996 190.75 42.0053 191.152 42.0411C191.428 42.0538 191.691 42.1477 191.897 42.3073C192.282 42.6002 192.678 42.5309 193.239 42.4907C194.281 42.4213 195.143 41.9584 196.232 42.0434C196.371 42.0461 196.506 42.0738 196.631 42.1246C196.756 42.1755 196.867 42.2484 196.957 42.3386C197.426 42.7232 197.798 43.0721 197.949 43.591C198.111 44.1524 198.768 44.6287 199.513 45C199.536 45 199.706 44.9508 199.711 44.9172C199.708 44.7784 199.714 44.6395 199.729 44.5012C199.786 44.3246 200.169 44.2396 200.511 44.3089C200.935 44.3939 201.251 44.2888 201.292 44.0271C201.324 43.8035 201.274 43.5798 201.308 43.3562C201.351 43.226 201.424 43.1044 201.522 42.9983C201.553 42.9536 201.639 42.9268 201.701 42.8932C201.74 42.9379 201.808 42.9804 201.813 43.0274C201.832 43.137 201.813 43.2511 201.813 43.3606C201.855 43.5843 202.019 43.6223 202.316 43.4747C202.559 43.3517 202.751 43.0833 203.056 43.4322C203.163 43.5552 203.254 43.4904 203.431 43.4501C204.158 43.2757 204.539 42.8597 205.049 42.5421C205.331 42.3676 205.435 42.437 205.62 42.5712C205.784 42.7103 205.971 42.8271 206.175 42.9178C206.558 43.0587 206.824 43.3226 207.478 43.0856C207.926 42.9178 208.658 43.0587 209.263 43.0632C209.818 43.4993 210.552 43.3226 211.146 43.1929C211.318 43.1427 211.5 43.1257 211.681 43.1431C211.861 43.1605 212.034 43.2119 212.189 43.2935C212.523 43.4953 212.93 43.5888 213.338 43.5575C214.137 43.5703 214.926 43.7145 215.662 43.9824C215.858 44.0337 216.064 44.0563 216.269 44.0495C216.569 44.0495 216.866 44.0271 217.084 44.2127C217.199 44.2164 217.313 44.1948 217.415 44.1501C217.46 44.1322 217.48 44.0226 217.447 44.0025C217.11 43.8079 217.061 43.5015 217.222 43.3316C217.504 43.0341 217.978 42.8127 218.374 42.56C218.611 42.8686 218.835 42.4951 219.072 42.56C219.31 42.6248 219.489 42.8664 219.833 42.645C219.872 42.6204 220.172 42.7903 220.37 42.8373C220.515 42.8653 220.666 42.8607 220.808 42.8239C221.459 42.6383 222.03 42.6629 222.499 43.0475C222.585 43.1203 222.688 43.1757 222.802 43.2098C222.916 43.2438 223.038 43.2556 223.158 43.2443C223.491 43.2287 223.94 43.1884 224.145 43.3025C224.513 43.4993 224.586 43.1437 224.906 43.2153C225.167 43.2689 225.521 43.1348 225.826 43.0677C226.131 43.0006 226.501 42.9022 226.834 42.8149C226.907 42.7948 227.004 42.73 227.04 42.7411C227.322 42.844 227.606 43.0565 227.866 43.0453C228.197 43.0319 228.444 42.8082 228.851 43.0453C229.078 43.184 229.411 43.2242 229.468 43.4926C229.642 43.5673 229.839 43.5901 230.029 43.5575C230.124 43.5255 230.211 43.4774 230.285 43.4159C230.358 43.3544 230.416 43.2808 230.456 43.1996C230.493 42.9774 230.501 42.7524 230.479 42.5287C230.479 42.4839 230.563 42.4437 230.607 42.4012C230.671 42.4375 230.732 42.4771 230.789 42.5197C230.862 42.5801 230.967 42.645 230.987 42.7143C231.066 42.9737 231.274 42.938 231.509 42.8172C232.082 42.4944 232.767 42.3506 233.45 42.4101C234.114 42.4683 234.666 42.2379 235.297 42.2223C235.871 42.2004 236.443 42.1459 237.009 42.059C237.303 42.0165 237.53 41.8846 237.514 41.6497C237.514 41.5782 237.626 41.5044 237.686 41.4261C238.207 41.7906 238.223 41.3926 238.411 41.2338C238.71 40.9766 239.244 41.0616 239.63 40.9028C239.979 40.7892 240.314 40.6469 240.631 40.4778C240.709 40.413 240.87 40.3593 240.891 40.2944C240.995 39.5162 242.064 39.704 242.746 39.581C243.338 39.4759 243.528 39.5027 243.864 39.25C244.2 38.9973 244.489 38.8027 245.063 38.8855C245.322 38.9069 245.584 38.9069 245.844 38.8855C246.175 38.8855 246.201 38.7021 246.05 38.6126C245.62 38.3621 245.954 38.2347 246.193 38.0848C246.293 38.0124 246.411 37.9624 246.539 37.9394C246.666 37.9163 246.798 37.921 246.923 37.9529C247.879 38.0826 248.828 38.2324 249.789 38.3778C250.295 38.4539 250.808 38.4832 251.321 38.465C251.842 38.4471 252.288 38.2056 252.848 38.2033C253.065 38.1704 253.261 38.073 253.403 37.9283C253.612 37.7522 253.78 37.5434 253.898 37.3132C254.028 37.0247 254.138 36.8212 254.68 37.0404C254.742 37.0672 254.99 36.9666 255.081 36.8883C255.115 36.8506 255.159 36.8202 255.209 36.7992C255.259 36.7783 255.314 36.7674 255.37 36.7674C255.426 36.7674 255.481 36.7783 255.531 36.7992C255.581 36.8202 255.625 36.8506 255.659 36.8883C255.77 36.8907 255.879 36.8684 255.977 36.8234C255.938 36.4388 256.631 36.5618 256.829 36.3091C256.993 36.0988 257.376 35.9602 257.629 35.7701C257.821 35.6034 257.997 35.4248 258.158 35.2356C258.345 35.0455 258.418 34.8129 258.94 34.8643C259.155 34.8704 259.37 34.8396 259.571 34.7735C259.772 34.7075 259.956 34.6076 260.112 34.4796C260.404 34.2873 260.683 34.124 260.698 33.793C260.714 33.5045 261.011 33.216 261.219 32.9454C261.266 32.8873 261.527 32.9029 261.683 32.8761C261.878 32.8418 262.071 32.8038 262.262 32.762C262.561 32.6949 262.348 32.3147 262.903 32.3572C263.119 32.3729 263.374 32.1694 263.611 32.0642C263.848 31.9591 264.148 31.8272 264.424 31.7131C264.639 31.6508 264.846 31.5691 265.042 31.4693C265.175 31.3626 265.336 31.2839 265.511 31.2392C265.686 31.1946 265.87 31.1854 266.05 31.2121C266.498 31.277 266.853 31.1137 267.246 31.0422C267.694 31.3978 267.973 31.1137 268.252 30.9236C268.358 30.8434 268.482 30.7822 268.616 30.7438C268.75 30.7054 268.892 30.6905 269.033 30.7C269.445 30.7179 269.867 30.7559 270.242 30.5524C270.334 30.5009 270.62 30.6016 270.821 30.6262C270.967 30.6463 271.183 30.7 271.253 30.6597C271.514 30.501 271.712 30.3533 272.155 30.5233C272.306 30.5688 272.468 30.5808 272.626 30.5581C272.784 30.5354 272.933 30.4789 273.059 30.3936C273.877 30.7783 274.145 30.3623 274.463 30.0045C274.513 29.9463 274.635 29.915 274.724 29.8725C275.102 30.2616 275.672 29.7048 276.128 30C276.347 30.1409 276.574 30 276.537 29.7763C276.532 29.694 276.495 29.6155 276.433 29.5527C276.136 29.3 276.605 29.3469 276.641 29.376C276.676 29.4142 276.72 29.4447 276.771 29.465C276.822 29.4854 276.878 29.495 276.934 29.493C276.99 29.491 277.045 29.4776 277.094 29.4537C277.143 29.4298 277.184 29.3963 277.215 29.3559C277.355 29.2217 277.475 29.1971 277.692 29.3313C277.749 29.3671 278.03 29.2552 278.213 29.2172C278.603 29.1345 278.035 28.6492 278.734 28.7006C279.218 28.7364 279.323 28.4143 279.643 28.2958C279.791 28.2475 279.946 28.2166 280.104 28.2041C280.365 28.175 280.766 28.2936 280.698 27.9491C280.791 27.9463 280.883 27.9515 280.974 27.9648C281.477 28.09 281.889 28.1191 282.142 27.7076C282.176 27.6547 282.224 27.6098 282.283 27.5769C282.342 27.544 282.41 27.5241 282.48 27.519C282.55 27.5139 282.621 27.5238 282.685 27.5477C282.75 27.5716 282.807 27.6089 282.85 27.6562C282.916 27.6931 282.995 27.7074 283.072 27.6964C283.812 27.2961 284.195 27.6964 284.635 27.9737C285.156 28.2958 285.109 28.2645 285.654 27.8843C286.199 27.5041 286.615 27.1105 286.74 26.5938C286.74 26.5603 287.043 26.5536 287.202 26.5335L287.572 26.2136C287.62 26.1606 287.683 26.1177 287.753 26.0882C287.824 26.0588 287.902 26.0434 287.981 26.0434C288.059 26.0434 288.137 26.0588 288.208 26.0882C288.279 26.1177 288.341 26.1606 288.39 26.2136C288.635 26.4015 288.929 26.5715 289.036 26.1398C289.117 26.1199 289.203 26.1199 289.283 26.1398C289.422 26.2025 289.528 26.2964 289.659 26.3635C289.83 26.4819 290.04 26.5508 290.26 26.5605C290.479 26.5701 290.696 26.5199 290.881 26.4172C291.17 26.2382 291.48 26.2628 291.793 26.1935C292.939 25.9699 294.205 26.1667 295.297 25.7775C296.339 25.9788 297.17 25.5695 298.077 25.3794C298.238 25.3422 298.409 25.3533 298.562 25.4107C298.807 25.6053 299.117 25.5338 299.401 25.536C299.945 25.536 300.485 25.5136 300.964 25.7596C301.139 25.8389 301.334 25.8789 301.532 25.8759C302.233 25.8603 302.913 25.8491 303.356 26.2942C303.407 26.3426 303.478 26.3729 303.554 26.3791C304.385 26.3322 304.997 26.7124 305.745 26.8264C305.978 26.8499 306.213 26.8499 306.446 26.8264C306.558 26.8264 306.707 26.7124 306.764 26.7325C307.004 26.813 307.228 27.0121 307.441 27.0031C307.655 26.9942 307.791 26.6878 308.16 26.7258C308.603 26.7728 309.07 26.9159 309.463 26.8622C309.828 26.8153 310.102 26.5312 310.459 26.397C311.118 26.1488 311.115 26.1734 311.688 26.5961C311.886 26.7273 312.118 26.8169 312.363 26.8577C312.431 26.8577 312.66 26.6721 312.707 26.5536C312.788 26.3501 312.968 26.368 313.168 26.4283C313.369 26.4887 313.656 26.5267 313.689 26.6073C313.9 27.2178 314.82 27.1418 315.422 27.3475C316.051 27.5588 316.713 27.6906 317.387 27.7389C318.491 27.8194 319.549 28.1012 320.683 28.0677C321.186 28.4166 321.357 28.1258 321.584 27.8865C321.811 27.6472 321.886 27.6629 322.105 27.9134C322.259 28.0945 322.434 28.2712 322.587 28.4523C322.871 28.7901 323.33 28.8527 323.538 28.5306C323.799 28.1191 324.192 28.0073 324.799 28.0587C325.32 28.1035 325.164 27.9447 325.01 27.7814C325.164 27.7322 325.336 27.6226 325.466 27.6405C325.899 27.7009 326.308 27.8172 326.738 27.8821C326.816 27.8821 327.045 27.7635 327.038 27.7143C326.912 27.0948 327.848 27.267 328.26 27.0836C328.451 27.0179 328.661 27.0041 328.862 27.0441C329.063 27.0841 329.244 27.1759 329.382 27.3073C329.436 27.3542 329.497 27.3935 329.565 27.4236C329.655 27.4641 329.747 27.5007 329.841 27.5332C329.841 27.437 329.82 27.3431 329.807 27.2491C329.807 27.1887 329.789 27.1306 329.779 27.0724C329.865 27.0724 329.977 27.0456 330.039 27.0724C330.173 27.1354 330.299 27.2104 330.414 27.2961C330.756 27.5197 331.084 27.7434 331.592 27.4258C331.751 27.3777 331.923 27.3692 332.087 27.4012C332.267 27.4212 332.45 27.4071 332.624 27.36C332.797 27.3128 332.956 27.2338 333.09 27.1284C333.301 26.974 333.525 26.7303 333.895 27.021C334.266 26.8922 334.626 26.7427 334.974 26.5737C335.211 26.4418 335.344 26.3769 335.542 26.5737C335.62 26.6464 335.719 26.7004 335.829 26.7303C336.089 26.8108 336.436 26.6811 336.428 26.491C336.403 26.2152 336.495 25.9409 336.688 25.7194C336.803 25.5874 336.793 25.5964 336.996 25.6568C337.863 25.9207 337.887 25.9274 338.762 25.6568C338.981 25.5672 339.225 25.5347 339.464 25.5633C339.704 25.592 339.928 25.6805 340.109 25.8178C340.32 25.9676 340.584 25.9699 340.607 25.7082C340.664 25.1066 341.618 25.0909 342.095 24.7666C342.548 25.1044 342.731 24.7488 342.999 24.6213C343.473 24.3976 343.726 24.0062 344.354 23.8922C344.429 23.8788 344.481 23.7714 344.515 23.7021C344.708 23.2861 345.237 23.1027 345.818 22.9998C346.399 22.897 346.746 22.7404 346.86 22.3803C346.92 22.1992 347.017 22.2372 347.16 22.3378C347.353 22.4698 347.504 22.6532 347.822 22.3893C348.023 22.2847 348.254 22.232 348.489 22.2372C349.27 22.2037 349.95 22.0695 350.474 21.6758C350.61 21.5707 350.81 21.3985 350.941 21.4119C352.03 21.5282 352.53 20.8976 353.327 20.656C353.656 20.5554 353.934 20.2669 354.302 20.4324C354.583 20.5643 354.977 20.2959 355.167 20.6091C355.284 20.8036 355.568 20.7723 355.779 20.6091C355.832 20.5618 355.893 20.5225 355.961 20.4928C356.298 20.3653 356.441 19.9247 356.941 20.1215C357.379 20.2959 357.546 19.9538 357.955 20.0343C358.304 20.1014 358.249 20.2467 358.395 20.3429C358.497 20.41 358.588 20.656 358.835 20.4749C359.166 20.2289 359.401 20.1886 359.617 20.5196C359.672 20.6001 359.825 20.7276 359.878 20.7186C360.419 20.618 360.519 21.0742 360.969 21.0586C361.045 21.0508 361.115 21.0208 361.167 20.9736C361.251 20.8976 361.298 20.8036 361.389 20.7321C361.43 20.6985 362.045 20.2423 362.082 20.2378C362.47 20.1864 361.561 19.8979 362.254 19.8844C362.652 19.8844 362.394 19.6205 362.483 19.4908C362.567 19.4639 362.66 19.4639 362.744 19.4908C363.241 19.7324 363.726 19.9873 364.224 20.2289C364.303 20.2425 364.386 20.2355 364.461 20.2087C364.489 20.2087 364.502 20.117 364.476 20.0991C364.299 19.9739 364.093 19.8755 363.932 19.7391C363.77 19.6026 363.27 19.5154 363.671 19.218C364.192 18.8512 364.453 18.7863 364.922 19.0569C365.245 19.2381 365.443 19.2806 365.769 19.0815C365.862 19.0256 366.232 19.1263 366.449 19.1911C366.698 19.2729 366.939 19.3708 367.17 19.4841C367.418 19.5959 367.527 19.6183 367.715 19.3947C368.064 18.9809 368.611 18.9474 369.132 19.2381C369.265 19.3119 369.369 19.4036 369.508 19.4617C369.593 19.4792 369.681 19.4838 369.768 19.4752C369.768 19.4193 369.792 19.3589 369.768 19.3097C369.745 19.2605 369.635 19.2359 369.594 19.1889C369.552 19.1419 369.594 19.1643 369.888 19.0435C370.297 18.8803 370.623 18.7461 371.152 18.8646C371.305 18.8982 371.628 18.5895 371.899 18.4576C372.096 18.3566 372.308 18.2812 372.53 18.2339C372.918 18.1579 373.377 18.0103 373.708 18.0886C374.039 18.1668 374.213 18.471 374.489 18.6521C374.624 18.6868 374.767 18.696 374.906 18.679C374.995 18.2317 375.748 18.4553 376.042 18.2317C376.49 18.4799 377.071 18.0483 377.566 18.3838C377.738 18.5007 377.949 18.5673 378.168 18.5737C378.387 18.5802 378.603 18.5261 378.783 18.4196C379.088 18.2652 379.698 18.509 380.104 18.2473C380.316 18.2915 380.517 18.3672 380.698 18.471C381.178 18.7349 381.167 18.7394 381.704 18.5045C381.783 18.4648 381.874 18.4476 381.965 18.4553C382.143 18.5416 382.346 18.5849 382.551 18.5806C382.756 18.5762 382.956 18.5245 383.129 18.4307C383.272 18.398 383.424 18.4141 383.554 18.4755C383.94 18.7483 384.122 18.301 384.442 18.3882C384.497 18.2675 384.614 18.1445 384.596 18.0282C384.521 17.5473 384.927 17.8895 385.138 17.885C385.487 17.885 385.842 17.9723 386.008 17.6055C386.109 17.4554 386.262 17.336 386.445 17.2643C386.629 17.1925 386.834 17.1718 387.032 17.2052C387.168 17.2186 387.324 17.0039 387.509 16.9614C387.645 16.9323 387.858 17.0665 388.002 17.0419C388.187 17.0106 388.458 16.9032 388.478 16.8182C388.577 16.4157 388.783 16.5834 389.145 16.6796C389.31 16.7243 389.531 16.9949 389.81 16.778C389.87 16.7113 389.915 16.6354 389.943 16.5543C389.973 16.6307 390.019 16.7013 390.081 16.7623C390.246 16.8499 390.435 16.8962 390.629 16.8962C390.823 16.8962 391.013 16.8499 391.178 16.7623C391.283 16.6561 391.378 16.5424 391.462 16.4224C391.644 16.239 392.038 16.1227 392.223 16.239C392.767 16.5767 393.502 16.2032 394.026 16.494C394.065 16.5141 394.211 16.4694 394.286 16.438C394.448 16.3493 394.623 16.2801 394.807 16.2323C395.449 16.1333 396.102 16.0958 396.754 16.1205C397.053 16.1495 397.251 16.2524 397.483 16.0668C397.564 16.0042 397.665 15.9505 397.759 15.8901C398.106 15.6665 398.431 16.2345 398.723 15.9237C398.953 15.6776 399.299 15.8722 399.588 15.7537C399.94 15.6083 400.307 15.9415 400.341 16.0757C400.44 16.4738 400.993 16.3195 401.274 16.4694C401.358 16.4955 401.45 16.4955 401.535 16.4694C402.17 16.1764 403.033 16.0646 403.426 15.5748C403.674 15.2728 404.059 15.1744 404.5 15.0425C405.345 14.8182 406.173 14.5478 406.978 14.2329C407.363 14.0674 407.913 14.0674 408.338 13.9287C408.762 13.7901 409.119 13.5418 409.562 13.4009C409.763 13.3361 410.07 13.4009 410.232 13.2309C410.365 13.1194 410.534 13.0449 410.717 13.0174C410.901 12.9899 411.089 13.0105 411.258 13.0766C411.727 13.345 411.91 13.1415 412.202 12.9805C412.332 12.9211 412.482 12.9014 412.626 12.9246C413.392 13.4747 414.588 13.5731 415.43 14.0428C415.938 13.9846 415.771 14.3604 416.058 14.4431C416.194 14.5044 416.344 14.5402 416.498 14.5482C417.069 14.4476 417.056 14.4431 417.241 14.5326C417.6 14.7093 417.981 15.0112 418.249 14.4632C418.467 14.4079 418.698 14.4079 418.916 14.4632C419.281 14.5751 419.581 14.7786 419.958 14.8882C420.138 14.9418 420.43 14.8882 420.109 14.6891C420.086 14.6735 420.214 14.5102 420.323 14.4655C420.607 14.3559 420.474 14.5572 420.552 14.6019C420.666 14.6644 420.796 14.7034 420.93 14.716C421.115 14.5594 421.363 14.5773 421.621 14.5572C422.032 14.5281 422.473 14.3335 422.741 14.7182C423.009 15.1029 423.616 14.7763 424.01 14.991C424.151 15.0671 424.711 14.9396 424.943 14.8077C425.242 14.6272 425.604 14.5383 425.969 14.5549C426.121 14.5382 426.264 14.4864 426.384 14.4051C426.613 14.2687 426.806 14.1054 427.116 14.3447C427.22 14.3978 427.344 14.4146 427.462 14.3917C427.983 14.1926 428.679 14.4521 429.171 14.1367C429.307 14.1036 429.449 14.0967 429.588 14.1166C429.687 14.5862 430.43 14.7204 430.763 15.047C431.09 15.3291 431.501 15.5274 431.952 15.6195C432.637 15.8096 432.877 15.7738 433.025 15.3265C433.114 15.0581 433.158 14.9866 433.57 15.1409C434.239 15.3914 434.904 15.1096 435.393 14.9307C435.658 14.8082 435.952 14.7407 436.253 14.7338C436.553 14.7268 436.852 14.7804 437.124 14.8904C437.817 15.1454 438.57 15.3377 439.289 15.5613C439.616 15.6438 439.929 15.7642 440.219 15.9192C440.351 16.0056 440.507 16.0622 440.671 16.0837C440.835 16.1052 441.003 16.0909 441.159 16.0422C441.855 15.7268 442.35 15.9661 442.796 16.2345C443.075 16.4045 443.145 16.3061 443.372 16.2166C443.862 16.0279 444.369 15.8716 444.888 15.7492C445.016 15.7179 445.232 15.8521 445.409 15.8901C445.717 15.9611 446.029 16.0164 446.344 16.0556C446.587 16.0802 446.889 16.1048 446.866 15.832C446.944 15.7722 447.045 15.7381 447.15 15.7358C447.484 15.895 447.871 15.9538 448.248 15.9028C448.626 15.8517 448.973 15.6937 449.234 15.454C449.255 15.4361 449.354 15.454 449.411 15.454L450.654 15.7022C451.04 15.3109 451.376 15.8454 451.761 15.7358C451.808 15.7224 451.993 15.8409 452.043 15.9192C452.134 16.0623 452.183 16.1026 452.303 15.9371C452.381 15.8581 452.468 15.7868 452.564 15.7246C452.643 15.8054 452.73 15.8802 452.824 15.9483C452.907 16.0063 453.006 16.0449 453.111 16.0601C453.533 16.1066 453.957 16.1343 454.382 16.1428C454.841 16.1428 455.3 16.0802 455.758 16.0668C456.217 16.0534 456.714 16.0668 457.191 16.0668C457.343 16.0481 457.487 15.9974 457.611 15.9192C457.837 15.7895 458.028 15.6106 458.348 15.8454C458.474 15.8351 458.594 15.7913 458.689 15.7201C458.773 15.6061 458.742 15.4562 458.817 15.3377C458.981 15.0716 459.354 15.0291 459.7 15.2281C459.83 15.2971 459.952 15.3765 460.065 15.4652C460.216 15.5949 460.292 15.5256 460.443 15.4652C461.024 15.1856 461.063 15.17 461.589 15.4652C461.92 15.6486 462.186 15.6128 462.303 15.416C462.467 15.1431 462.689 15.0604 463.127 15.076C463.345 15.076 463.596 14.9105 463.794 14.9374C464.012 14.9951 464.212 15.0971 464.375 15.2348C464.653 15.4227 464.818 14.9508 465.099 15.1946C465.193 15.2856 465.312 15.3542 465.446 15.3934C465.58 15.4326 465.724 15.4412 465.862 15.4182C466.159 15.3735 466.313 15.5256 466.532 15.5927C467.019 15.7244 467.515 15.8312 468.017 15.9125C468.054 15.9125 468.176 15.8476 468.176 15.8118C468.194 15.4428 468.413 15.6396 468.572 15.7559C468.648 15.8096 468.632 15.9169 468.71 15.9662C469.117 16.2211 469.38 16.5365 470.094 16.6147C470.86 16.6997 471.548 17.1135 472.381 16.7512C472.744 17.0285 473.101 16.6751 473.471 16.7512C473.761 16.8297 474.065 16.8667 474.369 16.8607C474.669 16.8317 474.932 16.6237 475.229 16.6013C475.594 16.5745 475.784 16.5499 475.75 16.2793C475.75 16.1443 475.806 16.0137 475.907 15.9102C475.956 15.8798 476.013 15.8583 476.072 15.8471C476.132 15.836 476.193 15.8354 476.253 15.8454C476.418 15.9297 476.575 16.0255 476.722 16.1317C477.071 16.3352 477.17 16.3016 477.303 15.9594C477.343 15.8895 477.39 15.8228 477.444 15.7604C477.467 15.8416 477.51 15.9177 477.569 15.984C477.653 16.0428 477.754 16.08 477.861 16.0914C478.034 16.1048 478.209 16.1048 478.382 16.0914C478.739 16.0757 478.502 16.6259 479.02 16.3866C479.208 16.2994 479.221 16.069 479.573 16.0511C479.68 16.0511 479.773 15.9438 479.883 15.9326C480.042 15.9192 480.227 15.9326 480.047 16.0959C479.969 16.1674 479.93 16.3531 479.966 16.3642C480.194 16.4443 480.435 16.4934 480.68 16.5096C481.002 16.5061 481.324 16.4882 481.644 16.4559C481.837 16.8697 482.165 16.8697 482.637 16.6125C482.697 16.5789 482.926 16.7042 483.069 16.6952C483.445 16.6751 483.697 17.1425 484.153 16.8048C484.247 16.821 484.336 16.8538 484.414 16.901C484.771 17.1582 485.31 17.1246 485.753 17.2499C486.123 17.3505 486.592 17.1582 486.98 17.3684C487.306 17.5429 487.856 17.2879 488.132 17.5921C488.254 17.5429 488.424 17.5093 488.484 17.4378C488.544 17.3662 488.484 17.2655 488.76 17.3259C489.264 17.4653 489.797 17.5088 490.323 17.4534C490.628 17.4194 490.937 17.4617 491.215 17.5752C491.492 17.6886 491.725 17.8685 491.886 18.093C492.08 18.4107 492.369 18.6785 492.723 18.8691C492.861 18.934 493.121 19.0324 493.163 19.0078C493.288 18.9166 493.387 18.8018 493.452 18.6723C493.536 18.5381 493.288 18.348 493.663 18.2541C494.039 18.1601 494.609 17.9387 494.815 18.1132C494.958 18.2372 495.132 18.3309 495.324 18.3868C495.516 18.4427 495.721 18.4593 495.922 18.4352C495.964 18.4352 495.998 18.5739 496.063 18.6365C496.602 19.1755 497.408 19.4215 498.377 19.417C498.843 19.417 499.211 19.4618 499.505 19.7055C499.607 19.7545 499.728 19.7673 499.841 19.7413C499.879 19.7169 499.91 19.6851 499.93 19.6486C499.951 19.612 499.962 19.5718 499.961 19.5311C499.977 19.3074 499.961 19.0838 499.961 18.8601L500 9.40616e-07Z" fill="#80FF00"/>
</svg>
